<svg id="80e1fa1a-6248-4a56-adbc-a598dda240fd" data-name="图层 1" xmlns="http://www.w3.org/2000/svg" viewBox="0 0 2000 1000"><defs><style>.\34 aeda268-d7be-43c2-aa59-bdbdadce8806{fill:#fff;}.\38 510f527-f144-4c2a-8fb4-a30dce66fc9e{fill:#fefefe;}.cc9567a8-eca1-493b-bef0-d2c97bc6d85e{fill:#0071d4;}</style></defs><title>logowhite</title><rect class="4aeda268-d7be-43c2-aa59-bdbdadce8806" x="1244.16" y="122.48" width="735.84" height="735.84" rx="20" ry="20"/><path class="8510f527-f144-4c2a-8fb4-a30dce66fc9e" d="M25.86,710.8l40.73-55.08c33.13,25.58,65.2,41.23,103,41.23,40.72,0,59.87-19,59.87-44.24,0-31-40.42-44.84-80.24-59.89-48.93-18.21-104.86-46-104.86-107.74,0-64.11,52.28-110.45,135.86-110.45,52,0,93.62,20.91,124,44.24l-40.12,53.27c-26.14-19-52.43-32.2-81.76-32.2-37.53,0-55.31,17.75-55.31,40.93,0,29.19,37.68,40.32,78.11,55.07,50.45,18.66,107,42.74,107,111.66,0,63.5-50.75,114.66-145,114.66C116.13,762.26,62.34,740.59,25.86,710.8Z"/><path class="8510f527-f144-4c2a-8fb4-a30dce66fc9e" d="M377.21,615.39V383.66h87.54v220.6c0,60.79,17.63,83.66,58,83.66,32.82,0,54.4-15,82.67-51.16V383.66H693V753.23H621.27l-6.68-54.47h-2.43c-32.83,38.52-69,63.5-120.06,63.5C412.17,762.26,377.21,708.69,377.21,615.39Z"/><path class="8510f527-f144-4c2a-8fb4-a30dce66fc9e" d="M874.15,714.41h-2.43l-7.6,38.82h-69V221.74h87.54V359.28l-2.43,61.39c31.15-27.08,69.45-46,107.74-46,93.31,0,147.26,74,147.26,187.64,0,126.86-76.29,200-159.26,200C941.92,762.26,905.45,745.11,874.15,714.41Zm171.11-150.78c0-73.74-24.31-117.37-81.15-117.37-27.05,0-53.19,13.54-81.45,41.53V659.93c26.14,22.58,53.19,30.7,74.77,30.7C1007.27,690.63,1045.26,647.29,1045.26,563.63Z"/><path class="cc9567a8-eca1-493b-bef0-d2c97bc6d85e" d="M1397.81,271.46h94.66V740.75h-94.66Z"/><path class="cc9567a8-eca1-493b-bef0-d2c97bc6d85e" d="M1669.62,348.73h-99.77V270.2h294.21v78.53h-99.14v392h-95.3Z"/></svg>